#!OML:ASF F:\VICON\USERDATA\INSTALL\rory3\rory3.ASF
:FULLY-SPECIFIED
:DEGREES
97
root 0.3972895718267114 17.681654618222044 45.994987484140374 -3.405231973193102 -3.4896568499865213 -4.946847579373895
lfemur -24.16921400568485 -3.039350481067544 -13.867795142748706
ltibia 33.793316807454644
lfoot -5.173191495122204 -2.504386067646722
ltoes -8.996286139272483
rfemur -2.5069407587311847 1.8472602699379421 29.269721527996364
rtibia 43.41406760580051
rfoot -7.993273806008711 -7.326167315624205
rtoes 3.763661574173737
lowerback 10.30861744690089 1.672701950308822 4.169302581637904
upperback 0.01610374615927747 2.9414808904568632 1.8089271792940476
thorax -6.011755815306358 0.9291194059666612 -0.4534266334985946
lowerneck -16.55194022622044 -3.42637511650347 -2.1969615861054024
upperneck 20.59509912829736 -4.535142712852579 2.257475694161028
head 9.286592283927247 -2.118755012948948 0.4855095507559355
lclavicle 2.9992450943792993e-16 5.589843890750168e-17
lhumerus -36.4231080770317 12.489552842862539 77.76037616453826
lradius 23.648127350010313
lwrist 7.369551638190567
lhand -28.922716616007836 20.576342094347382
lfingers 7.125020000000001
lthumb -2.1879684626483007 51.01120388683957
rclavicle 2.980854383012949e-16 5.4577838189594697e-17
rhumerus -22.456539722842486 -13.608480722877314 -80.47665903199352
rradius 29.020025300910874
rwrist 1.4361662105676416
rhand -18.11238363584223 23.165420496714326
rfingers 7.125020000000001
rthumb 7.943052748901317 -7.109112945622483
98
root 0.42399859171061455 17.711005075871697 46.762315849731955 -3.83697916730811 -3.2074525899180526 -4.227116415713001
lfemur -22.680859241453373 -2.5116343981725833 -15.66821781851718
ltibia 35.78484872341195
lfoot -4.843849213571245 -2.6370673401488594
ltoes -9.105045118278051
rfemur -4.386316608919104 1.1146449059727284 28.23719422835878
rtibia 44.1144171866744
rfoot -7.203104513425302 -7.156706284729534
rtoes 4.9241501894837825
lowerback 10.385778770809331 1.6398274550198373 3.6169447338055676
upperback 0.05327304125561974 2.831566314778727 1.6830296931265127
thorax -6.007998213249592 0.9638155860971387 -0.2890203102788569
lowerneck -16.578038583146313 -3.399454261197825 -2.216545548846529
upperneck 20.612108475961428 -4.556911939420293 2.273042127263839
head 9.286002630800633 -2.1163399269416834 0.4874358091127311
lclavicle 2.9992450943793e-16 5.58984389075017e-17
lhumerus -36.789811432417196 13.195252935249055 77.11879997137389
lradius 24.005444911188523
lwrist 7.545566747040642
lhand -28.992961575965147 20.363474343377078
lfingers 7.125020000000001
lthumb -2.342224933240532 50.503764957414525
rclavicle 2.980854383012949e-16 5.457783818959472e-17
rhumerus -23.254363129791443 -14.592948125962897 -80.30027810432578
rradius 29.030689771694185
rwrist 1.4644115355257719
rhand -18.14521548318431 23.114907633366148
rfingers 7.125020000000001
rthumb 7.930683727880674 -7.104610895776716
99
root 0.4472921074471305 17.743529759492255 47.525345987451026 -4.179561691041229 -2.8844926770207002 -3.5101079281135674
lfemur -20.19814744431865 -1.7857441136210948 -17.52905856707134
ltibia 37.186824456838714
lfoot -5.642812169190333 -3.0050763208518583
ltoes -8.9838612565992
rfemur -6.388077138390943 0.4953824016952726 27.311655232659426
rtibia 44.967129000685574
rfoot -6.02360874028447 -7.061956154733589
rtoes 5.134190292026988
lowerback 10.502851374758066 1.5809183533807514 3.0166236227451346
upperback 0.09344620101089507 2.6740146424372657 1.5606613721381952
thorax -6.026423416697766 0.9346531176783613 -0.1861609385902936
lowerneck -16.596920358697204 -3.370435110035701 -2.2394285052157348
upperneck 20.657356491657268 -4.548845777827195 2.3207624117673538
head 9.297890636645839 -2.104766967398838 0.4989334955420724
lclavicle 2.9992450943793e-16 5.589843890750172e-17
lhumerus -36.95072106901777 13.432767004192804 76.81860374463456
lradius 24.227599523309447
lwrist 7.773011564836798
lhand -28.915234513031763 20.6283136410605
lfingers 7.125020000000001
lthumb -2.2231774746454516 50.90090918202115
rclavicle 2.980854383012949e-16 5.457783818959472e-17
rhumerus -24.309762817065636 -15.724632843122485 -80.07854592781699
rradius 28.940113172521805
rwrist 1.6463346462376967
rhand -18.158595454305697 23.07272476664442
rfingers 7.125020000000001
rthumb 7.913569252653625 -7.118343058505826
100
root 0.4623162563719914 17.77214204585134 48.081495529298714 -4.440647185198877 -2.506262762323111 -2.907893244692826
lfemur -17.067953425902534 -1.5355319756458643 -19.64085754066014
ltibia 37.604880908413506
lfoot -5.585093076455537 -2.64177851523676
ltoes -8.918492147673247
rfemur -8.617834978507599 0.040022365867825815 26.51221005711128
rtibia 45.895952904405796
rfoot -4.695586856949177 -7.076866312827497
rtoes 5.0412810098318435
lowerback 10.64134426429838 1.4951198181646546 2.413583576135439
upperback 0.15346676490559708 2.5141751525883045 1.4721213460985056
thorax -6.03702748409577 0.8987776552438368 0.020206700568801805
lowerneck -16.596717255158396 -3.3342131972925153 -2.2480349631398995
upperneck 20.713236290508533 -4.513429288985131 2.378959255126489
head 9.302903186170283 -2.092960150911769 0.5057544003624698
lclavicle 2.9992450943793e-16 5.58984389075017e-17
lhumerus -36.91341450290408 13.088414184130986 76.89057364268864
lradius 24.373297420678302
lwrist 7.949345782676797
lhand -28.9837151171415 20.426186254349428
lfingers 7.125020000000001
lthumb -2.4030079530385624 50.33716578185758
rclavicle 2.980854383012949e-16 5.457783818959473e-17
rhumerus -25.363222272694774 -16.829582909950542 -79.87276823875703
rradius 28.683561182699737
rwrist 1.886105635222189
rhand -18.184897283675998 23.011934332716127
rfingers 7.125020000000001
rthumb 7.960851871206447 -7.026934459933337
101
root 0.47100222529567487 17.79315171981974 48.61056209419484 -4.610135980407722 -2.0418030259763147 -2.4229185558384927
lfemur -13.722969399978538 -1.6008047008593498 -21.081267087037844
ltibia 37.20707224628965
lfoot -5.697737845356132 -2.5387092130523614
ltoes -8.807857528882648
rfemur -11.194601071948735 -0.3386472551718507 25.57999097135093
rtibia 46.23844400616993
rfoot -3.4361240098294807 -7.1543635693018635
rtoes 4.1651903542904085
lowerback 10.80572114683705 1.3931793991083272 1.854458828360457
upperback 0.22467232153707406 2.310712258708568 1.409359603510718
thorax -6.041124529650771 0.8499610656797888 0.25112973392127746
lowerneck -16.616441081215186 -3.3135802526420015 -2.267487948254215
upperneck 20.755610025713935 -4.464309864367174 2.4157487967183466
head 9.305683594303774 -2.0817378730557214 0.5098095959735452
lclavicle 2.9992450943793e-16 5.58984389075017e-17
lhumerus -36.53831209645689 12.355538707788238 77.30593190037452
lradius 24.57101698060133
lwrist 7.986665969753078
lhand -28.94316376340513 20.596361860526162
lfingers 7.125020000000001
lthumb -2.2903631726913276 50.724886444863536
rclavicle 2.980854383012949e-16 5.457783818959473e-17
rhumerus -26.233723498294125 -17.832911414944164 -79.66402222842592
rradius 28.462043170853736
rwrist 2.1542729285514794
rhand -18.179298815006813 23.017411076287676
rfingers 7.125020000000001
rthumb 7.954687490002076 -7.032875790336011
102
root 0.46686607110500766 17.799626031713263 48.7249502183509 -4.705044342582948 -1.5794733461454848 -2.1064378638922676
lfemur -10.5591169753056 -1.7201428138620432 -21.933450413131844
ltibia 36.42961185919289
lfoot -5.795782269635664 -2.4253949253316445
ltoes -8.613794014130542
rfemur -14.170324980234318 -0.6193280965878354 24.607636426150286
rtibia 45.83053022469557
rfoot -2.783029161847341 -7.28215373687212
rtoes 3.5331920014803035
lowerback 10.965378603759925 1.2579988403314915 1.350962972153639
upperback 0.2794745572447089 2.042665505676106 1.3632809267962243
thorax -6.0510654273656 0.765497742281322 0.4094322890118399
lowerneck -16.65005027315003 -3.3021745787213055 -2.2913229643550084
upperneck 20.731822160773845 -4.463812578006934 2.373037650051251
head 9.312919988606447 -2.064691809878998 0.5196502329393129
lclavicle 2.9992450943793e-16 5.58984389075017e-17
lhumerus -35.87751278436974 11.30889944118795 77.89357531720654
lradius 24.827921715089975
lwrist 8.132365940158044
lhand -29.09474576853951 20.178126097201616
lfingers 7.125020000000001
lthumb -2.443056908154104 50.22328971741233
rclavicle 2.980854383012949e-16 5.457783818959473e-17
rhumerus -26.970560062478015 -18.71239432902554 -79.40119501158647
rradius 28.38847171215344
rwrist 2.4377846478865814
rhand -18.15725211986783 23.08530791905695
rfingers 7.125020000000001
rthumb 7.971161829035347 -7.030186195348553
103
root 0.46160361466040883 17.79734009276289 49.23593460552123 -4.670576462692303 -1.0621850571686569 -1.7750363828763525
lfemur -7.790544024132994 -2.006415706051774 -22.75022413749235
ltibia 35.548874232348965
lfoot -5.819871252490489 -2.08896677291243
ltoes -8.262801920803216
rfemur -16.823242782781758 -0.7304933123824124 23.71759430164675
rtibia 45.43812261047023
rfoot -2.833790420089575 -7.378516079192064
rtoes 3.0373821142301702
lowerback 11.096222334450857 1.0803130975587505 0.8603724408070508
upperback 0.3328037214409803 1.7762365180727473 1.3582677098083744
thorax -6.052407252532536 0.6637271672078977 0.632615344045509
lowerneck -16.687054924577673 -3.283103466124731 -2.303147814564877
upperneck 20.698122328255263 -4.476862049475482 2.3499268779869915
head 9.304746983086027 -2.0557075801244267 0.5157589157910614
lclavicle 2.9992450943793e-16 5.58984389075017e-17
lhumerus -34.99128066491959 10.053003173110005 78.49685031498034
lradius 25.117777722575916
lwrist 8.214392322142313
lhand -29.046404439322263 20.400004276091643
lfingers 7.125020000000001
lthumb -2.2846620869397642 50.73395201778267
rclavicle 2.9808543830129494e-16 5.457783818959473e-17
rhumerus -27.789672776513992 -19.542062509486694 -79.06985795167755
rradius 28.377901473223837
rwrist 2.5788973027062405
rhand -18.184455369561118 23.079775132457574
rfingers 7.125020000000001
rthumb 7.960765676035919 -7.083889216918079
